<svg width="24" height="25" viewBox="0 0 24 25" fill="none" xmlns="http://www.w3.org/2000/svg">
<g clip-path="url(#clip0_4730_248)">
<path d="M8.08787 0.453882C7.97987 0.645884 7.64387 1.30588 7.34387 1.92988L6.77987 3.05788L5.60387 3.38188C4.51187 3.69388 4.39187 3.75388 3.88787 4.31788C3.31187 4.96588 3.35987 4.94188 1.33187 5.24188L-0.0361328 5.44588L0.0358672 6.26188C0.107867 7.14988 0.455867 8.04988 0.875867 8.50588C1.42787 9.09388 2.00387 9.27388 3.71987 9.39388C4.60787 9.45388 5.37587 9.53788 5.41187 9.58588C5.44787 9.63388 5.92787 10.9899 6.46787 12.6099L7.46387 15.5499L6.21587 18.3579C5.53187 19.9059 4.88387 21.2139 4.78787 21.2619C4.69187 21.3099 4.39187 21.4059 4.11587 21.4779C3.46787 21.6579 2.90387 22.1379 2.62787 22.7499C2.33987 23.3739 2.33987 23.5899 2.63987 23.8899C2.86787 24.1179 3.03587 24.1299 5.92787 24.1299H8.96387L8.91587 23.8419C8.86787 23.6259 8.93987 23.5059 9.19187 23.3379C9.37187 23.2059 9.73187 22.9179 9.98387 22.6779C10.5599 22.1259 10.5719 21.7779 10.0559 20.7699C9.68387 20.0619 9.65987 19.9299 9.67187 18.8619C9.67187 18.2259 9.71987 17.2779 9.77987 16.7499C9.89987 15.5259 9.73187 15.1419 8.89187 14.7219C8.13587 14.3379 7.67987 13.7859 7.67987 13.2699C7.67987 12.9219 7.72787 12.8619 8.03987 12.7899C8.25587 12.7419 8.57987 12.4899 8.87987 12.1299C9.21587 11.7339 9.52787 11.4939 9.87587 11.3739L10.3799 11.2059L10.4399 10.4139L10.4999 9.60988L11.5439 10.5219C12.7199 11.5299 13.1159 12.2019 13.4999 13.7499C13.8959 15.3699 14.4119 15.9699 16.1999 16.8819C18.1199 17.8539 19.1759 19.1379 19.4039 20.7939C19.4879 21.3459 19.7759 21.4059 20.2199 20.9499C20.6519 20.5179 20.6039 19.9059 20.0159 18.2019C19.5599 16.9059 19.4999 16.6179 19.4759 15.5139L19.4519 14.2779L18.1919 12.9219C16.7159 11.3139 16.1879 10.8219 14.5319 9.48988C13.0439 8.30188 12.0839 7.35388 11.6999 6.68188C11.5439 6.40588 11.0879 5.42188 10.6919 4.47388C9.62387 1.98988 8.67587 0.129883 8.44787 0.129883C8.35187 0.129883 8.18387 0.273882 8.08787 0.453882Z" fill="white"/>
<path d="M21.2881 10.2701C21.2521 10.3661 21.2761 10.7141 21.3481 11.0501C21.4201 11.3861 21.4801 12.0461 21.4801 12.5261C21.4801 13.3541 21.4921 13.4021 21.8401 13.5941C22.1161 13.7501 22.2001 13.8821 22.2001 14.1581C22.2001 14.6261 21.8641 14.8181 21.2521 14.7101C20.8321 14.6381 20.7841 14.6621 20.7121 14.9501C20.6041 15.3581 20.8321 16.5461 21.2041 17.5901C21.9001 19.5461 21.9961 20.3621 21.6121 21.1901C21.3121 21.8381 20.8921 22.1981 20.1601 22.4501C19.7161 22.5941 19.4641 22.7741 19.2121 23.1461C18.9601 23.4821 18.6721 23.6981 18.2161 23.8781L17.5801 24.1421L19.0441 24.0941C20.3401 24.0461 20.5801 24.0101 21.1801 23.7221C21.9841 23.3141 22.6081 22.5581 22.8721 21.6341C23.1361 20.7461 23.0521 19.4381 22.6921 18.6941C22.4041 18.0941 22.4041 18.1061 22.9801 17.3381C23.6881 16.4141 23.9281 15.6701 23.9281 14.4701C23.9281 13.6301 23.8681 13.2461 23.6521 12.7301C23.3281 11.9381 22.4041 10.5221 22.0441 10.2701C21.7201 10.0421 21.3721 10.0421 21.2881 10.2701Z" fill="white"/>
<path d="M13.248 19.1379C12.564 19.4379 12.276 19.9899 11.832 21.8379C11.604 22.7739 11.328 23.6739 11.232 23.8299L11.04 24.1299H11.604C12.096 24.1299 12.144 24.1059 11.952 23.9739C11.76 23.8419 11.748 23.7699 11.868 23.5419C12.048 23.2059 12.468 23.0499 13.164 23.0499H13.716L13.224 22.6899C12.552 22.2099 12.312 21.7179 12.408 21.0339C12.564 19.8939 13.356 19.2339 14.58 19.1979C15.06 19.1859 15.12 19.1619 14.88 19.0899C14.412 18.9339 13.656 18.9579 13.248 19.1379Z" fill="white"/>
</g>
<defs>
<clipPath id="clip0_4730_248">
<rect width="24" height="24" fill="white" transform="translate(0 0.129883)"/>
</clipPath>
</defs>
</svg>
